<svg xmlns="http://www.w3.org/2000/svg" xmlns:xlink="http://www.w3.org/1999/xlink" width="428" height="428" viewBox="0 0 428 428">
  <defs>
    <clipPath id="clip-path">
      <rect id="Rectangle_51" data-name="Rectangle 51" width="428" height="428" transform="translate(0 347)" fill="#446d59" stroke="#707070" stroke-width="1"/>
    </clipPath>
    <clipPath id="clip-path-2">
      <rect id="Rectangle_50" data-name="Rectangle 50" width="679" height="520" transform="translate(-1378.964 -1677.94)" fill="#fff" stroke="#707070" stroke-width="1"/>
    </clipPath>
  </defs>
  <g id="banner_m_new" transform="translate(0 -347)">
    <g id="Rectangle_48" data-name="Rectangle 48" transform="translate(0 347)" fill="#446d59" stroke="#707070" stroke-width="1">
      <rect width="428" height="428" stroke="none"/>
      <rect x="0.5" y="0.5" width="427" height="427" fill="none"/>
    </g>
    <g id="Mask_Group_14" data-name="Mask Group 14" clip-path="url(#clip-path)">
      <g id="Mask_Group_13" data-name="Mask Group 13" transform="translate(1253.964 1978.94)" opacity="0.04" clip-path="url(#clip-path-2)">
        <g id="Layer_2" data-name="Layer 2" transform="translate(-1356.171 -1652.702)">
          <g id="Layer_1" data-name="Layer 1">
            <g id="Group_16" data-name="Group 16">
              <path id="Union_7" data-name="Union 7" d="M340,445.038,239.24,343.967l28.96-29.045L368.993,415.988a32.817,32.817,0,1,0,46.342-46.479l-25.463-25.542,28.936-29.045,25.462,25.542A73.838,73.838,0,1,1,340,445.038Zm-164.366-2.906a74.1,74.1,0,0,1,0-104.578L273.5,239.395l28.966,29.05L204.6,366.6a32.817,32.817,0,1,0,46.342,46.479L273.5,390.448l28.966,29.05L279.9,442.131a73.571,73.571,0,0,1-104.266,0Zm138.908-92.837,109.577-109.9,28.966,29.05-109.577,109.9ZM23.707,289.337A77.684,77.684,0,1,1,129.425,175.482l-.123.124,97.267,97.563L197.6,302.209l-97.262-97.553-.177.188a36.371,36.371,0,1,0,3.088,54.264L122.9,239.393l25.536,25.6a75.139,75.139,0,0,1-11.729,18.666c-1.323,1.6-2.775,3.186-4.286,4.7a77.4,77.4,0,0,1-108.716.982ZM490.924,293.7c-2.035-1.675-4.007-3.45-5.9-5.346l-95.155-95.436,28.893-29,89.594,89.83a37.49,37.49,0,1,0,11.179-51.965,36.143,36.143,0,0,0-6.176,5,36.62,36.62,0,0,0-4.988,6.2l-14.258,14.3-28.966-29.05L485,178.33a76.11,76.11,0,0,1,5.894-5.346,77.4,77.4,0,0,1,103.8,5.351h.025A77.689,77.689,0,0,1,490.924,293.7ZM239.244,192.915l28.961-29.05,109.582,109.9-28.965,29.05Zm75.3,5.327,98.392-98.689A33.006,33.006,0,1,0,366.6,53.079l-23.062,23.16-28.99-29.05L340,21.671A73.841,73.841,0,1,1,444.3,126.226L343.531,227.291Zm-150.6,0L273.516,88.336l28.965,29.05L192.9,227.291Zm11.7-69.109A73.836,73.836,0,1,1,279.9,24.551l97.264,97.561-28.961,29.05L250.94,53.6a32.818,32.818,0,0,0-46.34,46.482l22.568,22.635L198.21,151.763Z"/>
            </g>
          </g>
        </g>
      </g>
    </g>
    <g id="Group" transform="translate(0 -111.92)">
      <text id="Find_Your_Dream_" data-name="Find Your Dream " transform="translate(67.81 639.755)" fill="#fff" font-size="40" font-family="NewYork"><tspan x="0" y="0">Find Your Dream </tspan></text>
      <text id="Property_In_Ubud" data-name="Property In Ubud" transform="translate(65.15 688.755)" fill="#fff" font-size="40" font-family="NewYork"><tspan x="0" y="0">Property In Ubud</tspan></text>
    </g>
    <g id="Group_17" data-name="Group 17" transform="translate(2.831 -122.92)">
      <text id="_UBUDREAMPROPERTY" data-name="@UBUDREAMPROPERTY" transform="translate(91 749)" fill="#fff" font-size="14" font-family="Montserrat-Regular, Montserrat" letter-spacing="0.4em"><tspan x="0" y="0">@UBUDREAMPROPERTY</tspan></text>
      <path id="Icon_awesome-instagram" data-name="Icon awesome-instagram" d="M11.087,7.64A5.677,5.677,0,1,0,15.11,9.3,5.686,5.686,0,0,0,11.087,7.64Zm0,9.382a3.7,3.7,0,1,1,3.7-3.7A3.7,3.7,0,0,1,11.087,17.022Zm7.244-9.614a1.321,1.321,0,1,1-.387-.939,1.326,1.326,0,0,1,.387.939ZM22.1,8.753a6.563,6.563,0,0,0-1.791-4.646A6.606,6.606,0,0,0,15.66,2.316c-1.831-.1-7.318-.1-9.149,0A6.6,6.6,0,0,0,1.864,4.1,6.584,6.584,0,0,0,.073,8.748c-.1,1.831-.1,7.318,0,9.149a6.563,6.563,0,0,0,1.791,4.646A6.614,6.614,0,0,0,6.51,24.335c1.831.1,7.318.1,9.149,0a6.563,6.563,0,0,0,4.646-1.791A6.606,6.606,0,0,0,22.1,17.9c.1-1.831.1-7.313,0-9.144ZM19.732,19.862a3.742,3.742,0,0,1-2.108,2.108c-1.46.579-4.923.445-6.537.445s-5.082.129-6.537-.445a3.742,3.742,0,0,1-2.108-2.108C1.864,18.4,2,14.939,2,13.325s-.129-5.082.445-6.537A3.742,3.742,0,0,1,4.551,4.681c1.46-.579,4.923-.445,6.537-.445s5.082-.129,6.537.445a3.742,3.742,0,0,1,2.108,2.108c.579,1.46.445,4.923.445,6.537S20.311,18.407,19.732,19.862Z" transform="translate(62.174 730.675)" fill="#fff"/>
    </g>
  </g>
</svg>
