<svg xmlns="http://www.w3.org/2000/svg" xmlns:xlink="http://www.w3.org/1999/xlink" width="1366" height="350" viewBox="0 0 1366 350">
  <defs>
    <clipPath id="clip-path">
      <rect id="Rectangle_35" data-name="Rectangle 35" width="1110" height="350" transform="translate(0 1479)" fill="#234836"/>
    </clipPath>
    <clipPath id="clip-path-2">
      <rect id="Rectangle_36" data-name="Rectangle 36" width="889" height="680" transform="translate(-1379.685 -1678.4)" fill="#fff" stroke="#707070" stroke-width="1"/>
    </clipPath>
  </defs>
  <g id="banner_new" transform="translate(0 -1479)">
    <rect id="Rectangle_34" data-name="Rectangle 34" width="1366" height="350" transform="translate(0 1479)" fill="#446d59"/>
    <g id="Mask_Group_9" data-name="Mask Group 9" clip-path="url(#clip-path)">
      <g id="Mask_Group_10" data-name="Mask Group 10" transform="translate(1600.685 2991.4)" opacity="0.04" clip-path="url(#clip-path-2)">
        <g id="Layer_2" data-name="Layer 2" transform="translate(-1348.601 -1644.848)">
          <g id="Layer_1" data-name="Layer 1">
            <g id="Group_8" data-name="Group 8">
              <path id="Union_3" data-name="Union 3" d="M443.825,580.931,312.293,449l37.8-37.914,131.57,131.926a42.838,42.838,0,1,0,60.492-60.671L508.92,449l37.771-37.914,33.237,33.341a96.381,96.381,0,1,1-136.1,136.507ZM229.27,577.137a96.733,96.733,0,0,1,0-136.512L357.021,312.493l37.811,37.92L267.079,478.546a42.838,42.838,0,1,0,60.492,60.671l29.45-29.541,37.811,37.92-29.458,29.541a96.037,96.037,0,0,1-136.1,0ZM410.594,455.952,553.63,312.493l37.811,37.92L448.4,493.872ZM30.946,377.687a101.405,101.405,0,1,1,138-148.621l-.16.162L295.752,356.581l-37.811,37.908L130.98,267.148l-.231.245a47.477,47.477,0,1,0,4.03,70.834l25.652-25.734,33.333,33.417a98.082,98.082,0,0,1-15.311,24.365c-1.727,2.085-3.622,4.158-5.6,6.131a101.035,101.035,0,0,1-141.913,1.281Zm609.883,5.7c-2.656-2.186-5.23-4.5-7.7-6.979L508.92,251.828l37.716-37.857L663.587,331.23A48.935,48.935,0,1,0,678.18,263.4a47.181,47.181,0,0,0-8.062,6.533,47.8,47.8,0,0,0-6.512,8.09l-18.612,18.668-37.811-37.92L633.1,232.783a99.327,99.327,0,0,1,7.693-6.979,101.041,101.041,0,0,1,135.5,6.985h.032a101.415,101.415,0,0,1-135.5,150.6ZM312.3,251.822l37.8-37.92L493.146,357.367l-37.81,37.92Zm98.289,6.953L539.023,129.952a43.085,43.085,0,1,0-60.49-60.665l-30.1,30.232L410.587,61.6l33.238-33.31A96.387,96.387,0,1,1,579.968,164.77L448.429,296.7Zm-196.59,0L357.035,115.31l37.81,37.92L251.8,296.7Zm15.272-90.212A96.384,96.384,0,1,1,365.372,32.05L492.342,159.4l-37.8,37.92L327.564,69.971a42.838,42.838,0,1,0-60.492,60.671l29.459,29.547-37.8,37.914Z"/>
            </g>
          </g>
        </g>
      </g>
    </g>
    <text id="Find_Your_Dream_Property_In_Ubud" data-name="Find Your Dream Property In Ubud" transform="translate(344.5 1607.245)" fill="#fff" font-size="90" font-family="NewYork"><tspan x="0" y="0">Find Your Dream </tspan><tspan x="0" y="80">Property In Ubud</tspan></text>
    <g id="Group_20" data-name="Group 20" transform="translate(-252 60.245)">
      <text id="_UBUDREAMPROPERTY" data-name="@UBUDREAMPROPERTY" transform="translate(648.5 1706)" fill="#fff" font-size="25" font-family="Montserrat-Regular, Montserrat" letter-spacing="0.4em"><tspan x="0" y="0">@UBUDREAMPROPERTY</tspan></text>
      <path id="Icon_awesome-instagram" data-name="Icon awesome-instagram" d="M15.757,9.914a8.066,8.066,0,1,0,5.717,2.362,8.079,8.079,0,0,0-5.717-2.362Zm0,13.331a5.252,5.252,0,1,1,5.252-5.252,5.252,5.252,0,0,1-5.252,5.252ZM26.051,9.584A1.88,1.88,0,1,1,25.5,8.25,1.884,1.884,0,0,1,26.051,9.584ZM31.4,11.5a9.325,9.325,0,0,0-2.545-6.6,9.387,9.387,0,0,0-6.6-2.545c-2.6-.148-10.4-.148-13,0a9.373,9.373,0,0,0-6.6,2.538,9.356,9.356,0,0,0-2.545,6.6c-.148,2.6-.148,10.4,0,13a9.325,9.325,0,0,0,2.545,6.6,9.4,9.4,0,0,0,6.6,2.545c2.6.148,10.4.148,13,0a9.325,9.325,0,0,0,6.6-2.545,9.387,9.387,0,0,0,2.545-6.6c.148-2.6.148-10.392,0-12.994ZM28.041,27.281a5.318,5.318,0,0,1-3,3c-2.074.823-7,.633-9.288.633s-7.221.183-9.288-.633a5.318,5.318,0,0,1-3-3c-.823-2.074-.633-7-.633-9.288s-.183-7.221.633-9.288a5.318,5.318,0,0,1,3-3c2.074-.823,7-.633,9.288-.633s7.221-.183,9.288.633a5.318,5.318,0,0,1,3,3c.823,2.074.633,7,.633,9.288S28.863,25.214,28.041,27.281Z" transform="translate(596.505 1679.762)" fill="#fff"/>
    </g>
  </g>
</svg>
