<svg xmlns="http://www.w3.org/2000/svg" xmlns:xlink="http://www.w3.org/1999/xlink" width="123" height="94" viewBox="0 0 123 94">
  <defs>
    <clipPath id="clip-path">
      <rect id="Rectangle_13" data-name="Rectangle 13" width="123" height="94" transform="translate(-1379.685 -1678.099)" fill="#fff" stroke="#707070" stroke-width="1"/>
    </clipPath>
  </defs>
  <g id="Mask_Group_5" data-name="Mask Group 5" transform="translate(1379.685 1678.099)" clip-path="url(#clip-path)">
    <g id="Layer_2" data-name="Layer 2" transform="translate(-1431.015 -1700.498)">
      <g id="Layer_1" data-name="Layer 1" transform="translate(0 0)">
        <g id="Group_6" data-name="Group 6">
          <path id="Union_1" data-name="Union 1" d="M-1442.264,67.776l-18.2-18.254,5.23-5.246,18.2,18.253a5.906,5.906,0,0,0,8.37,0,5.948,5.948,0,0,0,0-8.394l-4.6-4.613,5.226-5.246,4.6,4.613a13.383,13.383,0,0,1,0,18.887,13.254,13.254,0,0,1-9.416,3.911A13.254,13.254,0,0,1-1442.264,67.776Zm-29.685-.525a13.384,13.384,0,0,1,0-18.887l17.676-17.728,5.231,5.247-17.676,17.728a5.948,5.948,0,0,0,0,8.394,5.906,5.906,0,0,0,8.37,0l4.075-4.087,5.231,5.247-4.076,4.087a13.251,13.251,0,0,1-9.415,3.912A13.256,13.256,0,0,1-1471.949,67.251Zm25.088-16.767,19.79-19.849,5.231,5.247-19.79,19.849Zm-52.527-10.829a14.081,14.081,0,0,1-.525-19.687,13.98,13.98,0,0,1,19.616-.874l-.021.021,17.567,17.62-5.231,5.245-17.566-17.619-.032.034a6.544,6.544,0,0,0-9.056.866,6.592,6.592,0,0,0,.519,9.108,6.545,6.545,0,0,0,9.095-.173l3.549-3.561,4.612,4.623a13.574,13.574,0,0,1-2.118,3.371c-.239.289-.5.575-.774.848a13.946,13.946,0,0,1-9.908,4.117A13.943,13.943,0,0,1-1499.389,39.655Zm84.382.788c-.368-.3-.724-.623-1.065-.966l-17.186-17.236,5.218-5.238,16.181,16.224a6.721,6.721,0,0,0,2.019,2.026,6.753,6.753,0,0,0,8.774-1.261,6.8,6.8,0,0,0,0-8.889,6.753,6.753,0,0,0-8.774-1.261,6.523,6.523,0,0,0-1.115.9,6.614,6.614,0,0,0-.9,1.119l-2.575,2.583-5.231-5.247,3.586-3.6a13.747,13.747,0,0,1,1.064-.966,13.98,13.98,0,0,1,18.748.966h0a14.082,14.082,0,0,1,.489,19.345,13.965,13.965,0,0,1-10.407,4.638A13.935,13.935,0,0,1-1415.007,40.444Zm-45.455-18.2,5.23-5.247,19.791,19.85-5.231,5.247Zm13.6.962,17.77-17.824a5.98,5.98,0,0,0,2.061-5.984,5.961,5.961,0,0,0-4.464-4.477,5.942,5.942,0,0,0-5.966,2.068l-4.165,4.183-5.236-5.247,4.6-4.609a13.288,13.288,0,0,1,18.832,0,13.383,13.383,0,0,1,0,18.887l-18.2,18.253Zm-27.2,0,19.79-19.85,5.231,5.247-19.791,19.85Zm2.113-12.482a13.384,13.384,0,0,1,0-18.887,13.288,13.288,0,0,1,18.831,0l17.567,17.619-5.23,5.247L-1458.35-2.919a5.906,5.906,0,0,0-8.37,0,5.948,5.948,0,0,0,0,8.394l4.076,4.088-5.23,5.246Z" transform="translate(1559.301 39.601)" fill="#234836"/>
        </g>
      </g>
    </g>
  </g>
</svg>
