<svg xmlns="http://www.w3.org/2000/svg" width="303.936" height="79.025" viewBox="0 0 303.936 79.025">
  <path id="Union_4" data-name="Union 4" d="M46.167,56.453q2.89-.089,5.781-.17a7.984,7.984,0,0,1,5.291,1.481,5.5,5.5,0,0,1,2.086,4.447,5.836,5.836,0,0,1-1.834,4.661,7.478,7.478,0,0,1-5.076,1.853l-3.234.095q.15,5.063.3,10.125l-2.631.079Q46.509,67.74,46.167,56.453Zm5.716,2.129-3,.087Q49,62.6,49.115,66.54l2.865-.084q4.649-.13,4.546-4a3.665,3.665,0,0,0-1.345-2.863,4.723,4.723,0,0,0-3.1-1.014ZM235.3,78.645q.126-4.829.252-9.663-3.379-6.547-6.783-13.09l2.987.075q2.593,5.146,5.171,10.3,2.857-5,5.727-10l2.987.085q-3.754,6.349-7.475,12.709l-.261,9.664ZM71.862,55.785q3.22-.072,6.442-.139A7.819,7.819,0,0,1,83.461,57.1a5.325,5.325,0,0,1,1.959,4.307,5.5,5.5,0,0,1-1.3,3.705A6.923,6.923,0,0,1,80.4,67.366v0q3.738,5.335,7.451,10.679l-3.289.061q-3.416-5.067-6.854-10.125l-2.928.064L75,78.3l-2.631.057Q72.117,67.073,71.862,55.785Zm6.1,2.155v0l-3.4.072q.084,3.87.169,7.744l3.335-.07a5.031,5.031,0,0,0,3.376-1.2,3.6,3.6,0,0,0,1.248-2.866q-.074-3.688-4.5-3.688ZM99.3,75.291q-2.04-2.971-2.129-8.689t1.868-8.751a7.151,7.151,0,0,1,11.659-.157q2.045,2.977,2.1,8.708.058,5.7-1.9,8.732h0a6.534,6.534,0,0,1-5.773,3.078H105A6.507,6.507,0,0,1,99.3,75.291Zm5.557-18.217a4.044,4.044,0,0,0-3.706,2.489,15.241,15.241,0,0,0-1.182,7,15.42,15.42,0,0,0,1.369,6.983,4.023,4.023,0,0,0,3.756,2.358q5.009-.063,4.9-9.471v0q-.1-9.365-5.078-9.366ZM209.012,78.065q.185-10.224.371-20.45-3.521-.065-7.051-.121.016-1.064.035-2.129,8.354.136,16.711.311l-.04,2.129q-3.521-.074-7.02-.14-.185,10.222-.391,20.45Zm-19.319-.3q-3.256-5.172-6.533-10.335l-2.927-.03-.1,10.259-2.629-.027q.1-11.287.2-22.578,3.224.028,6.443.063a7.839,7.839,0,0,1,5.108,1.619,5.33,5.33,0,0,1,1.824,4.369,5.51,5.51,0,0,1-1.417,3.654A6.877,6.877,0,0,1,185.87,66.9q3.564,5.453,7.111,10.909Zm-9.438-12.654,3.335.035A5.014,5.014,0,0,0,187,64.058a3.6,3.6,0,0,0,1.339-2.825q.041-3.773-4.606-3.83l-3.4-.033Q180.289,61.241,180.254,65.115ZM125.538,55l5.783-.033a7.941,7.941,0,0,1,5.254,1.61,5.521,5.521,0,0,1,1.981,4.493,5.825,5.825,0,0,1-1.942,4.605,7.476,7.476,0,0,1-5.118,1.741l-3.236.017q.03,5.068.059,10.132l-2.631.015Q125.614,66.293,125.538,55Zm5.664,2.255-3,.014q.023,3.937.047,7.874l2.866-.015q4.652-.022,4.632-3.891a3.642,3.642,0,0,0-1.269-2.894,4.765,4.765,0,0,0-3.231-1.089Zm20.771,20.253L152,54.927q5.9,0,11.8.037,0,1.141-.009,2.288-4.576-.022-9.15-.032,0,3.5-.014,6.995,4.386,0,8.776.029l-.009,2.289q-4.386-.02-8.771-.03,0,4.361-.019,8.722,4.6,0,9.2.032l-.011,2.288Q157.884,77.517,151.973,77.509ZM296.538,50.693q-2.08-.34-4.163-.669l-1.1-.174,4.2-26.507c-1.715,2.975-3.424,5.956-5.1,8.921L290,32.93l-.757-.114q-2.083-.315-4.167-.623l-.756-.112-.167-.741c-.74-3.318-1.5-6.67-2.272-10.018l-3.73,26.572-1.112-.154q-2.086-.293-4.172-.576l-1.112-.148,5.261-38.822,1.1.15c1.922.259,3.9.534,5.877.815l.752.107.174.742c1.16,4.915,2.289,9.877,3.383,14.783,2.481-4.389,5.008-8.8,7.535-13.154l.382-.658.752.117c1.89.3,3.807.6,5.862.938l1.1.181-6.3,38.664ZM9.03,48.381C6.677,46.5,5.123,43.377,4.4,39.1L0,12.928l1.1-.184L5.606,12l1.1-.185.185,1.1q2.01,12.354,4.026,24.71c1.119,6.835,4.328,7.155,6.644,6.784a4.585,4.585,0,0,0,3.663-2.223c.695-1.315.833-3.429.413-6.281l-3.82-25.813,1.1-.164q2.26-.335,4.521-.657l1.1-.157,3.741,26.171c.643,4.486.142,8-1.482,10.436-1.642,2.461-4.438,4.012-8.312,4.613a17.484,17.484,0,0,1-2.69.22A10.5,10.5,0,0,1,9.03,48.381ZM39.522,7.114l1.1-.137c3.6-.445,7.236-.872,10.806-1.273,3.978-.445,7.255.07,9.742,1.534a8.785,8.785,0,0,1,4.363,7.113,7.942,7.942,0,0,1-1.56,5.58,10.362,10.362,0,0,1-2.537,2.441,10.907,10.907,0,0,1,4.055,2.379,9.8,9.8,0,0,1,3.082,6.383,10.9,10.9,0,0,1-3.268,9.244,15.258,15.258,0,0,1-9.253,4.23c-3.574.4-7.143.819-10.614,1.249l-1.1.137ZM52.294,26.4c-1.166.133-2.354.27-3.6.417l1.482,12.46c1.285-.152,2.577-.3,3.839-.443a10.378,10.378,0,0,0,6.047-2.386,5.242,5.242,0,0,0,1.668-4.632,5.475,5.475,0,0,0-2.583-4.424,9.014,9.014,0,0,0-4.766-1.116A18.531,18.531,0,0,0,52.294,26.4Zm-.883-14.684c-1.438.161-2.928.326-4.447.511l1.03,8.663c1.363-.161,2.745-.32,4.118-.476,6.347-.714,6.819-3.348,6.621-5.268a3.325,3.325,0,0,0-1.853-2.838,7.623,7.623,0,0,0-3.554-.708A17.285,17.285,0,0,0,51.411,11.713ZM261.487,45.7q-2.275-.278-4.552-.544l-.8-.095-.158-.8c-.824-4.181-1.675-8.393-2.527-12.529-3.585-.4-7.225-.784-10.844-1.141-1.737,3.923-3.462,7.866-5.13,11.727l-.32.741-.8-.074q-2.253-.212-4.507-.41l-1.536-.135.613-1.416c5.145-11.868,10.533-23.852,16.009-35.619l.334-.717.787.079c1.746.178,3.575.371,5.451.575l.788.085.184.77c2.906,12.641,5.681,25.484,8.248,38.166l.3,1.517Zm-16.3-20.845c2.3.231,4.616.476,6.932.73v-.005c-.767-3.63-1.556-7.305-2.36-10.965C248.222,18.036,246.692,21.466,245.192,24.858ZM85.111,39.119c-2.166-2.071-3.442-5.315-3.794-9.634Q80.292,16.809,79.278,4.137l-.089-1.112L80.3,2.937q2.273-.184,4.546-.354L85.959,2.5l1.958,26.069c.525,6.907,3.684,7.494,6.016,7.335a4.557,4.557,0,0,0,3.828-1.9c.806-1.253,1.127-3.346.952-6.223L97.132,1.736l1.112-.067q2.275-.138,4.552-.265l1.111-.061,1.471,26.4c.25,4.523-.548,7.976-2.373,10.265-1.843,2.31-4.757,3.614-8.662,3.88-.443.03-.876.044-1.3.044A11.027,11.027,0,0,1,85.111,39.119Zm133.525,2.39c-6.49-.474-13.076-.884-19.581-1.216l-1.112-.056,1.992-39.124,1.112.057c6.731.343,13.554.773,20.283,1.255l1.111.081-.435,5.951-1.112-.079c-4.82-.352-9.7-.669-14.517-.945l-.514,9.208c4.608.263,9.232.562,13.76.889l1.112.08-.429,5.954-1.111-.082c-4.5-.328-9.093-.622-13.664-.884l-.671,12.032c4.722.27,9.5.581,14.212.926l1.112.081-.436,5.953ZM118.976.646,120.088.6c2.534-.093,5.128-.178,7.722-.252,5.431-.156,9.878,1.53,13.223,5.006,3.3,3.424,5,8.221,5.058,14.253.059,6.114-1.519,10.969-4.691,14.45A16.611,16.611,0,0,1,129.11,39.5c-2.564.075-5.116.158-7.579.248l-1.111.041Zm9.058,5.669-2.09.064.869,27.223,1.992-.059a9.344,9.344,0,0,0,7.584-3.672c1.886-2.433,2.809-5.854,2.744-10.169C139.069,15.4,138,12.005,136,9.66a9.374,9.374,0,0,0-7.573-3.35C128.3,6.31,128.166,6.312,128.034,6.315Zm57.3,33.4c-1.788-.072-3.622-.131-5.452-.185l-.6-.016L178.972,39c-3.388-5.5-6.892-11.056-10.412-16.517-1.067-.019-2.149-.033-3.227-.047l-.185,16.786-1.112-.014q-2.182-.024-4.363-.039h-1.111L158.807,0h1.112c3.676.023,7.4.068,11.086.135,3.957.073,7.131,1.088,9.43,3.017a9.611,9.611,0,0,1,3.4,8.088,10,10,0,0,1-2.805,6.661,12.468,12.468,0,0,1-5.49,3.334c3.663,5.566,7.287,11.2,10.785,16.78l1.111,1.778ZM165.4,16.468c1.493.019,3.014.041,4.537.067a7.59,7.59,0,0,0,5.082-1.482,4.741,4.741,0,0,0,1.916-3.75,4.6,4.6,0,0,0-1.111-3.471c-1.057-1.108-2.941-1.694-5.6-1.741-1.608-.028-3.189-.05-4.713-.071Z" fill="#234836"/>
</svg>
