<svg xmlns="http://www.w3.org/2000/svg" width="14" height="14" viewBox="0 0 14 14">
  <g id="bathtub" transform="translate(-0.003)">
    <g id="Group_25" data-name="Group 25" transform="translate(2.252 2.474)">
      <g id="Group_24" data-name="Group 24">
        <path id="Path_110" data-name="Path 110" d="M81.152,88A1.152,1.152,0,1,0,82.3,89.152,1.152,1.152,0,0,0,81.152,88Zm0,1.728a.576.576,0,1,1,.576-.576A.576.576,0,0,1,81.152,89.728Z" transform="translate(-80 -88)" fill="#234836"/>
      </g>
    </g>
    <g id="Group_27" data-name="Group 27" transform="translate(5.23 3.182)">
      <g id="Group_26" data-name="Group 26">
        <path id="Path_111" data-name="Path 111" d="M184.864,112a.864.864,0,1,0,.864.864A.864.864,0,0,0,184.864,112Zm0,1.152a.288.288,0,1,1,.288-.288A.288.288,0,0,1,184.864,113.152Z" transform="translate(-184 -112)" fill="#234836"/>
      </g>
    </g>
    <g id="Group_29" data-name="Group 29" transform="translate(4.612 2.304)">
      <g id="Group_28" data-name="Group 28">
        <path id="Path_112" data-name="Path 112" d="M160.432,64a.432.432,0,1,0,.432.432A.432.432,0,0,0,160.432,64Zm0,.576a.144.144,0,1,1,.144-.144A.144.144,0,0,1,160.432,64.576Z" transform="translate(-160 -64)" fill="#234836"/>
      </g>
    </g>
    <g id="Group_31" data-name="Group 31" transform="translate(0.003)">
      <g id="Group_30" data-name="Group 30" transform="translate(0)">
        <path id="Path_113" data-name="Path 113" d="M14,8.192a.581.581,0,0,0-.331-.436,1.529,1.529,0,0,0,.1-.523,1.167,1.167,0,0,0-.7-1.068v-5a1.167,1.167,0,0,0-2.333,0v.005A1.218,1.218,0,0,0,9.569,2.333a.233.233,0,0,0,.233.233h2.1a.233.233,0,0,0,.233-.233A1.19,1.19,0,0,0,11.2,1.212V1.167a.7.7,0,1,1,1.4,0v4.9a1.128,1.128,0,0,0-.309.043A1.982,1.982,0,0,0,8.58,5.833a1.623,1.623,0,0,0-.263.031,1.16,1.16,0,0,0-1.9-.389,1.978,1.978,0,0,0-2.953.18,1.632,1.632,0,0,0-1.907.887A1.16,1.16,0,0,0,.236,7.7v.119A.58.58,0,0,0,.493,8.857l.148,1.407a3.327,3.327,0,0,0,1.915,2.6l-.093.37a.619.619,0,0,0,1.115.493l.309-.464a4.464,4.464,0,0,0,.568.04H9.55a4.464,4.464,0,0,0,.568-.04l.31.464a.619.619,0,0,0,1.115-.495l-.093-.369a3.327,3.327,0,0,0,1.916-2.6l.148-1.407A.581.581,0,0,0,14,8.192Zm-2.741-6.46a.869.869,0,0,1,.368.368h-1.54A.869.869,0,0,1,11.255,1.732ZM1.4,7a.7.7,0,0,1,.221.04.233.233,0,0,0,.3-.146l0-.005a1.165,1.165,0,0,1,1.457-.77q.044.014.087.031a.233.233,0,0,0,.281-.09,1.513,1.513,0,0,1,2.491-.076.233.233,0,0,0,.391-.024.695.695,0,0,1,1.3.23.233.233,0,0,0,.311.183,1.16,1.16,0,0,1,.4-.073c.023,0,.047,0,.084,0a.238.238,0,0,0,.236-.156,1.515,1.515,0,0,1,2.934.316.233.233,0,0,0,.353.171.689.689,0,0,1,.36-.1.7.7,0,0,1,.7.7,1.013,1.013,0,0,1-.123.467H.7A.7.7,0,0,1,1.4,7ZM3.19,13.465a.152.152,0,0,1-.275-.121l.074-.3a4.088,4.088,0,0,0,.4.122Zm7.873.009h0a.148.148,0,0,1-.12.059.151.151,0,0,1-.126-.068l-.2-.3a4.14,4.14,0,0,0,.4-.122l.074.3A.15.15,0,0,1,11.063,13.474ZM12.9,10.216A3.19,3.19,0,0,1,9.55,12.833H4.456A3.19,3.19,0,0,1,1.1,10.216L.962,8.866H13.044ZM13.419,8.4H.586a.117.117,0,1,1,0-.233H13.419a.117.117,0,1,1,0,.233Z" transform="translate(-0.003)" fill="#234836"/>
      </g>
    </g>
    <g id="Group_33" data-name="Group 33" transform="translate(9.492 2.969)">
      <g id="Group_32" data-name="Group 32">
        <path id="Path_114" data-name="Path 114" d="M328.288,104a.288.288,0,0,0-.288.288v.864a.288.288,0,1,0,.576,0v-.864A.288.288,0,0,0,328.288,104Z" transform="translate(-328 -104)" fill="#234836"/>
      </g>
    </g>
    <g id="Group_35" data-name="Group 35" transform="translate(10.186 2.753)">
      <g id="Group_34" data-name="Group 34">
        <path id="Path_115" data-name="Path 115" d="M352.288,96a.288.288,0,0,0-.288.288v.576a.288.288,0,0,0,.576,0v-.576A.288.288,0,0,0,352.288,96Z" transform="translate(-352 -96)" fill="#234836"/>
      </g>
    </g>
    <g id="Group_37" data-name="Group 37" transform="translate(10.881 2.969)">
      <g id="Group_36" data-name="Group 36">
        <path id="Path_116" data-name="Path 116" d="M376.288,104a.288.288,0,0,0-.288.288v.864a.288.288,0,1,0,.576,0v-.864A.288.288,0,0,0,376.288,104Z" transform="translate(-376 -104)" fill="#234836"/>
      </g>
    </g>
    <g id="Group_39" data-name="Group 39" transform="translate(11.122 2.753)">
      <g id="Group_38" data-name="Group 38">
        <path id="Path_117" data-name="Path 117" d="M400.288,96a.288.288,0,0,0-.288.288v.576a.288.288,0,0,0,.576,0v-.576A.288.288,0,0,0,400.288,96Z" transform="translate(-400 -96)" fill="#234836"/>
      </g>
    </g>
  </g>
</svg>
