<svg xmlns="http://www.w3.org/2000/svg" width="17.863" height="15.63" viewBox="0 0 17.863 15.63">
  <path id="Icon_awesome-bath" data-name="Icon awesome-bath" d="M17.026,10.065H2.791V5.041a1.116,1.116,0,0,1,2.059-.6,2.371,2.371,0,0,0,.239,2.9.418.418,0,0,0,.017.573l.395.395a.419.419,0,0,0,.592,0L9.408,4.993a.419.419,0,0,0,0-.592l-.395-.395a.418.418,0,0,0-.573-.017A2.367,2.367,0,0,0,6.2,3.453,2.79,2.79,0,0,0,1.116,5.041v5.024H.837A.837.837,0,0,0,0,10.9v.558a.837.837,0,0,0,.837.837h.279v1.116a3.341,3.341,0,0,0,1.116,2.5v1.132a.837.837,0,0,0,.837.837h.558a.837.837,0,0,0,.837-.837v-.279H13.4v.279a.837.837,0,0,0,.837.837h.558a.837.837,0,0,0,.837-.837V15.911a3.341,3.341,0,0,0,1.116-2.5V12.3h.279a.837.837,0,0,0,.837-.837V10.9A.837.837,0,0,0,17.026,10.065Z" transform="translate(0 -2.25)" fill="#234836"/>
</svg>
