<svg xmlns="http://www.w3.org/2000/svg" width="22.329" height="13.397" viewBox="0 0 22.329 13.397">
  <path id="Icon_awesome-bed" data-name="Icon awesome-bed" d="M6.14,11.2A2.791,2.791,0,1,0,3.349,8.408,2.794,2.794,0,0,0,6.14,11.2ZM18.421,6.733H10.606a.558.558,0,0,0-.558.558v5.024H2.233V5.058A.558.558,0,0,0,1.675,4.5H.558A.558.558,0,0,0,0,5.058V17.339a.558.558,0,0,0,.558.558H1.675a.558.558,0,0,0,.558-.558V15.664H20.1v1.675a.558.558,0,0,0,.558.558h1.116a.558.558,0,0,0,.558-.558v-6.7A3.907,3.907,0,0,0,18.421,6.733Z" transform="translate(0 -4.5)" fill="#234836"/>
</svg>
