<svg xmlns="http://www.w3.org/2000/svg" width="19.727" height="14" viewBox="0 0 19.727 14">
  <path id="bed" d="M27.409,90.5h-.318V87.955a1.274,1.274,0,0,0-1.273-1.273V81.273A1.274,1.274,0,0,0,24.545,80H11.182a1.274,1.274,0,0,0-1.273,1.273v5.409a1.274,1.274,0,0,0-1.273,1.273V90.5H8.318A.318.318,0,0,0,8,90.818v1.273a.318.318,0,0,0,.318.318h.318v1.273A.318.318,0,0,0,8.955,94h.955a.318.318,0,0,0,.312-.256l.267-1.335H25.239l.267,1.335a.318.318,0,0,0,.312.256h.955a.318.318,0,0,0,.318-.318V92.409h.318a.318.318,0,0,0,.318-.318V90.818A.318.318,0,0,0,27.409,90.5ZM10.545,81.273a.637.637,0,0,1,.636-.636H24.545a.637.637,0,0,1,.636.636v5.409h-.636V85.409a1.274,1.274,0,0,0-1.273-1.273H19.455a1.274,1.274,0,0,0-1.273,1.273v1.273h-.636V85.409a1.274,1.274,0,0,0-1.273-1.273H12.455a1.274,1.274,0,0,0-1.273,1.273v1.273h-.636Zm13.364,4.136v1.273H18.818V85.409a.637.637,0,0,1,.636-.636h3.818a.637.637,0,0,1,.636.636Zm-7,0v1.273H11.818V85.409a.637.637,0,0,1,.636-.636h3.818A.637.637,0,0,1,16.909,85.409ZM9.273,87.955a.637.637,0,0,1,.636-.636H25.818a.637.637,0,0,1,.636.636V90.5H9.273Zm.375,5.409H9.273v-.955h.566Zm16.806,0h-.375l-.191-.955h.566Zm.636-1.591H8.636v-.636H27.091Z" transform="translate(-8 -80)" fill="#234836"/>
</svg>
