<svg id="region" xmlns="http://www.w3.org/2000/svg" width="14" height="14" viewBox="0 0 14 14">
  <g id="Group_22" data-name="Group 22">
    <path id="Path_107" data-name="Path 107" d="M13.767,0H.233A.233.233,0,0,0,0,.233V13.767A.233.233,0,0,0,.233,14H13.767A.233.233,0,0,0,14,13.767V.233A.233.233,0,0,0,13.767,0ZM.467.467h3.5c0,.7,0,2.768,0,2.8a3.286,3.286,0,0,1-3.5,3.492ZM4.412,3.733H8.633V8.4h-5.6v-2A3.637,3.637,0,0,0,4.412,3.733ZM7,12.833v.7H.467V7.225a4.725,4.725,0,0,0,2.1-.53V8.633a.233.233,0,0,0,.233.233H4.2v1.867a.233.233,0,0,0,.233.233H7.7V12.6H7.233A.233.233,0,0,0,7,12.833Zm6.533.7H7.467v-.467H11.03c.2,0,.4,0,.4-.233v-2.1a2.019,2.019,0,0,1,2.1-2.092Zm0-5.358a2.481,2.481,0,0,0-2.567,2.558V12.6h-2.8V10.733a.234.234,0,0,0-.069-.165.259.259,0,0,0-.166-.068H4.667V8.867h4.2A.233.233,0,0,0,9.1,8.633v-4.9h4.433Zm0-4.909H4.411c.022-.2.022-.617.022-1.517V.467h9.1Z" fill="#234836"/>
  </g>
</svg>
